<?xml version="1.0" encoding="UTF-8"?>
<svg width="200px" height="200px" viewBox="0 0 200 200" version="1.1" xmlns="http://www.w3.org/2000/svg" xmlns:xlink="http://www.w3.org/1999/xlink">
    <title>Audio NFT Placeholder</title>
    <defs>
        <linearGradient x1="0%" y1="0%" x2="100%" y2="100%" id="linearGradient">
            <stop stop-color="#6366F1" offset="0%"></stop>
            <stop stop-color="#A855F7" offset="100%"></stop>
        </linearGradient>
    </defs>
    <g stroke="none" stroke-width="1" fill="none" fill-rule="evenodd">
        <rect fill="#F9FAFB" x="0" y="0" width="200" height="200" rx="8"></rect>
        <g transform="translate(50, 50)" fill="url(#linearGradient)">
            <path d="M50,0 C77.6142375,0 100,22.3857625 100,50 C100,77.6142375 77.6142375,100 50,100 C22.3857625,100 0,77.6142375 0,50 C0,22.3857625 22.3857625,0 50,0 Z M50,10 C27.90861,10 10,27.90861 10,50 C10,72.09139 27.90861,90 50,90 C72.09139,90 90,72.09139 90,50 C90,27.90861 72.09139,10 50,10 Z" fill-rule="nonzero"></path>
            <circle cx="50" cy="50" r="15"></circle>
            <path d="M50,20 C67.6731119,20 82,34.3268881 82,52 C82,69.6731119 67.6731119,84 50,84 C32.3268881,84 18,69.6731119 18,52 C18,34.3268881 32.3268881,20 50,20 Z M50,30 C37.8497355,30 28,39.8497355 28,52 C28,64.1502645 37.8497355,74 50,74 C62.1502645,74 72,64.1502645 72,52 C72,39.8497355 62.1502645,30 50,30 Z" fill-rule="nonzero" opacity="0.5"></path>
            <rect x="45" y="0" width="10" height="20" rx="5"></rect>
            <rect x="45" y="80" width="10" height="20" rx="5"></rect>
            <rect x="80" y="45" width="20" height="10" rx="5"></rect>
            <rect x="0" y="45" width="20" height="10" rx="5"></rect>
        </g>
    </g>
</svg>
