<svg xmlns="http://www.w3.org/2000/svg" viewBox="0 0 96 96" fill="none">
  <rect width="96" height="96" rx="48" fill="#E42575"/>
  <path d="M71.4 35.5L71.3 35.4C71.2 35.3 71.1 35.3 71 35.2C70.9 35.1 70.8 35.1 70.7 35C70.6 35 70.5 34.9 70.4 34.9C70.3 34.9 70.2 34.8 70.1 34.8C70 34.8 69.9 34.8 69.8 34.7C69.7 34.7 69.6 34.7 69.5 34.7C69.4 34.7 69.3 34.7 69.2 34.7C69.1 34.7 69 34.7 68.9 34.7C68.8 34.7 68.7 34.7 68.6 34.8C68.5 34.8 68.4 34.8 68.3 34.9C68.2 34.9 68.1 35 68 35C67.9 35 67.8 35.1 67.7 35.1C67.6 35.2 67.5 35.2 67.4 35.3C67.3 35.4 67.2 35.4 67.1 35.5L48.7 53.9L30.3 35.5C30.2 35.4 30.1 35.4 30 35.3C29.9 35.2 29.8 35.2 29.7 35.1C29.6 35.1 29.5 35 29.4 35C29.3 35 29.2 34.9 29.1 34.9C29 34.8 28.9 34.8 28.8 34.8C28.7 34.8 28.6 34.7 28.5 34.7C28.4 34.7 28.3 34.7 28.2 34.7C28.1 34.7 28 34.7 27.9 34.7C27.8 34.7 27.7 34.7 27.6 34.7C27.5 34.7 27.4 34.7 27.3 34.8C27.2 34.8 27.1 34.8 27 34.9C26.9 34.9 26.8 35 26.7 35C26.6 35 26.5 35.1 26.4 35.1C26.3 35.2 26.2 35.2 26.1 35.3C26 35.4 25.9 35.4 25.8 35.5L25.7 35.6C25.6 35.7 25.6 35.8 25.5 35.9C25.4 36 25.4 36.1 25.3 36.2C25.3 36.3 25.2 36.4 25.2 36.5C25.1 36.6 25.1 36.7 25.1 36.8C25.1 36.9 25 37 25 37.1C25 37.2 25 37.3 25 37.4C25 37.5 25 37.6 25 37.7C25 37.8 25 37.9 25 38C25 38.1 25.1 38.2 25.1 38.3C25.1 38.4 25.1 38.5 25.2 38.6C25.2 38.7 25.3 38.8 25.3 38.9C25.4 39 25.4 39.1 25.5 39.2C25.6 39.3 25.6 39.4 25.7 39.5L44.1 57.9L25.7 76.3C25.6 76.4 25.6 76.5 25.5 76.6C25.4 76.7 25.4 76.8 25.3 76.9C25.3 77 25.2 77.1 25.2 77.2C25.1 77.3 25.1 77.4 25.1 77.5C25.1 77.6 25 77.7 25 77.8C25 77.9 25 78 25 78.1C25 78.2 25 78.3 25 78.4C25 78.5 25 78.6 25 78.7C25 78.8 25.1 78.9 25.1 79C25.1 79.1 25.1 79.2 25.2 79.3C25.2 79.4 25.3 79.5 25.3 79.6C25.4 79.7 25.4 79.8 25.5 79.9C25.6 80 25.6 80.1 25.7 80.2L25.8 80.3C25.9 80.4 26 80.4 26.1 80.5C26.2 80.6 26.3 80.6 26.4 80.7C26.5 80.7 26.6 80.8 26.7 80.8C26.8 80.9 26.9 80.9 27 80.9C27.1 80.9 27.2 81 27.3 81C27.4 81 27.5 81 27.6 81.1C27.7 81.1 27.8 81.1 27.9 81.1C28 81.1 28.1 81.1 28.2 81.1C28.3 81.1 28.4 81.1 28.5 81.1C28.6 81.1 28.7 81.1 28.8 81C28.9 81 29 81 29.1 80.9C29.2 80.9 29.3 80.8 29.4 80.8C29.5 80.8 29.6 80.7 29.7 80.7C29.8 80.6 29.9 80.6 30 80.5C30.1 80.4 30.2 80.4 30.3 80.3L48.7 61.9L67.1 80.3C67.2 80.4 67.3 80.4 67.4 80.5C67.5 80.6 67.6 80.6 67.7 80.7C67.8 80.7 67.9 80.8 68 80.8C68.1 80.9 68.2 80.9 68.3 80.9C68.4 81 68.5 81 68.6 81C68.7 81 68.8 81.1 68.9 81.1C69 81.1 69.1 81.1 69.2 81.1C69.3 81.1 69.4 81.1 69.5 81.1C69.6 81.1 69.7 81.1 69.8 81.1C69.9 81 70 81 70.1 81C70.2 81 70.3 80.9 70.4 80.9C70.5 80.9 70.6 80.8 70.7 80.8C70.8 80.7 70.9 80.7 71 80.7C71.1 80.6 71.2 80.6 71.3 80.5C71.4 80.4 71.5 80.4 71.6 80.3L71.7 80.2C71.8 80.1 71.8 80 71.9 79.9C72 79.8 72 79.7 72.1 79.6C72.1 79.5 72.2 79.4 72.2 79.3C72.3 79.2 72.3 79.1 72.3 79C72.3 78.9 72.4 78.8 72.4 78.7C72.4 78.6 72.4 78.5 72.4 78.4C72.4 78.3 72.4 78.2 72.4 78.1C72.4 78 72.4 77.9 72.4 77.8C72.4 77.7 72.3 77.6 72.3 77.5C72.3 77.4 72.3 77.3 72.2 77.2C72.2 77.1 72.1 77 72.1 76.9C72 76.8 72 76.7 71.9 76.6C71.8 76.5 71.8 76.4 71.7 76.3L53.3 57.9L71.7 39.5C71.8 39.4 71.8 39.3 71.9 39.2C72 39.1 72 39 72.1 38.9C72.1 38.8 72.2 38.7 72.2 38.6C72.3 38.5 72.3 38.4 72.3 38.3C72.3 38.2 72.4 38.1 72.4 38C72.4 37.9 72.4 37.8 72.4 37.7C72.4 37.6 72.4 37.5 72.4 37.4C72.4 37.3 72.4 37.2 72.4 37.1C72.4 37 72.3 36.9 72.3 36.8C72.3 36.7 72.3 36.6 72.2 36.5C72.2 36.4 72.1 36.3 72.1 36.2C72 36.1 72 36 71.9 35.9C71.8 35.8 71.8 35.7 71.7 35.6L71.4 35.5Z" fill="white"/>
</svg>