<svg xmlns="http://www.w3.org/2000/svg" viewBox="0 0 40 40" fill="none">
  <path d="M0 20C0 8.954 8.954 0 20 0C31.046 0 40 8.954 40 20C40 31.046 31.046 40 20 40C8.954 40 0 31.046 0 20Z" fill="#FEDA03"/>
  <path d="M27.1213 14.1213C27.6839 13.5587 27.6839 12.6569 27.1213 12.0943C26.5587 11.5317 25.6569 11.5317 25.0943 12.0943L15.0943 22.0943C14.5317 22.6569 14.5317 23.5587 15.0943 24.1213C15.6569 24.6839 16.5587 24.6839 17.1213 24.1213L27.1213 14.1213Z" fill="black"/>
  <path d="M27.1213 27.9057C27.6839 28.4683 27.6839 29.3701 27.1213 29.9327C26.5587 30.4953 25.6569 30.4953 25.0943 29.9327L15.0943 19.9327C14.5317 19.3701 14.5317 18.4683 15.0943 17.9057C15.6569 17.3431 16.5587 17.3431 17.1213 17.9057L27.1213 27.9057Z" fill="black"/>
</svg>